<?xml version="1.0" encoding="UTF-8"?>
<svg width="512px" height="512px" enable-background="new 0 0 23.101 23.101" version="1.1" viewBox="0 0 23.101 23.101" xml:space="preserve" xmlns="http://www.w3.org/2000/svg">
	<path d="m8.258 4.458c0-0.144 0.02-0.455 0.06-0.931 0.043-0.477 0.223-0.976 0.546-1.5 0.32-0.522 0.839-0.991 1.561-1.406 0.719-0.413 1.758-0.621 3.114-0.621h3.82v4.163h-2.797c-0.277 0-0.535 0.104-0.768 0.309-0.231 0.205-0.35 0.4-0.35 0.581v2.59h3.914c-0.041 0.507-0.086 1-0.138 1.476l-0.155 1.258c-0.062 0.425-0.125 0.819-0.187 1.182h-3.462v11.542h-5.158v-11.543h-2.516v-3.915h2.516v-3.185z" fill="#fff"/>
</svg>

