<?xml version="1.0" encoding="UTF-8"?>
<svg width="512px" height="512px" enable-background="new 0 0 512.029 512.029" version="1.1" viewBox="0 0 512.029 512.029" xml:space="preserve" xmlns="http://www.w3.org/2000/svg">
		<path d="M111.758,8.189C91.726-2.883,68.206-2.627,48.302,8.349l233.28,215.2l78.368-78.368L111.758,8.189z" fill="#bdbdbd"/>
		<path d="m24.974 30.365c-5.696 9.312-8.96 19.968-8.96 31.264v388.67c0 10.944 2.976 21.376 8.352 30.496l234.59-234.59-233.98-215.84z" fill="#bdbdbd"/>
		<path d="m463.85 202.52l-74.752-41.248-84 83.968 102.94 94.944 55.84-30.816c20.096-11.136 32.128-31.104 32.128-53.44-0.032-22.336-12.032-42.304-32.16-53.408z" fill="#bdbdbd"/>
		<path d="m282.48 267.9l-235.23 235.23c10.208 5.824 21.408 8.896 32.672 8.896 10.88 0 21.824-2.752 31.84-8.288l266.78-147.23-96.064-88.608z"
		fill="#bdbdbd"/>
</svg>

