<?xml version="1.0" encoding="UTF-8"?>
<!DOCTYPE svg  PUBLIC '-//W3C//DTD SVG 1.1//EN'  'http://www.w3.org/Graphics/SVG/1.1/DTD/svg11.dtd'>
<svg width="512px" height="512px" enable-background="new 0 0 483.86 483.86" version="1.1" viewBox="0 0 483.86 483.86" xml:space="preserve" xmlns="http://www.w3.org/2000/svg">
	<path d="m483.86 112.34h-26.699c-6.952 0-25.143 7.552-25.143 13.981v233.47c0 6.445 18.191 11.729 25.143 11.729h26.699v51.835h-172.81v-51.835h34.57v-241.91h-6.016l-83.186 293.74h-64.406l-82.11-293.74h-6.219v241.91h34.555v51.835h-138.24v-51.835h19.173c7.527 0 15.383-5.283 15.383-11.729v-233.47c0-6.43-7.855-13.981-15.383-13.981h-19.173v-51.841h179.16l58.496 207.34h1.574l59.073-207.34h185.56v51.841z"
	fill="#bdbdbd"/>
</svg>

